<?xml version="1.0" standalone="no"?><!DOCTYPE svg PUBLIC "-//W3C//DTD SVG 20010904//EN"
    "http://www.w3.org/TR/2001/REC-SVG-20010904/DTD/svg10.dtd">
<svg version="1.0" xmlns="http://www.w3.org/2000/svg" width="100%" height="100%"
    viewBox="0 0 121.000000 113.000000" preserveAspectRatio="xMidYMid meet">

    <g transform="translate(0.000000,113.000000) scale(0.100000,-0.100000)" fill="#0C40A6"
        stroke="none">
        <path d="M470 1114 c-198 -42 -359 -200 -405 -396 -17 -74 -18 -163 -1 -233
l12 -50 17 62 c15 53 22 64 45 70 15 4 230 57 477 118 248 62 449 116 448 121
-1 5 -5 17 -8 26 -8 19 -5 21 60 37 40 10 41 12 59 78 10 38 21 75 23 84 4 13
-1 16 -21 12 -20 -4 -28 -14 -38 -47 -6 -22 -15 -45 -19 -50 -12 -13 -959
-244 -959 -233 0 5 9 44 21 86 l21 77 316 78 c175 43 323 82 331 86 20 11 -86
58 -167 76 -82 17 -128 17 -212 -2z" />
        <path d="M1052 698 l-21 -73 -458 -114 c-252 -62 -462 -117 -466 -121 -8 -7
14 -59 41 -98 7 -10 98 10 415 88 224 55 411 100 416 100 12 0 -32 -160 -47
-168 -6 -4 -211 -57 -457 -117 l-445 -110 -10 -34 c-5 -19 -8 -36 -7 -37 1 -2
86 18 188 44 185 46 187 46 245 31 318 -77 624 138 659 462 6 61 -7 177 -24
207 -5 8 -16 -15 -29 -60z" />
    </g>
</svg>
